<?xml version="1.0" encoding="utf-8"?>
<!-- Generator: Adobe Illustrator 27.7.0, SVG Export Plug-In . SVG Version: 6.00 Build 0)  -->
<svg version="1.1" id="Capa_1" xmlns="http://www.w3.org/2000/svg" xmlns:xlink="http://www.w3.org/1999/xlink" x="0px" y="0px"
	 viewBox="0 0 429 103.1" style="enable-background:new 0 0 429 103.1;" xml:space="preserve">
<style type="text/css">
	.st0{fill:#E23E57;}
</style>
<g id="SvgjsG1811" transform="matrix(4.077529156983966,0,0,4.077529156983966,-3.8914173926747893,-20.753191069294584)">
	<path class="st0" d="M10.9,6.2c1,0.3,0.5,1.9-0.6,1.5C8.2,7,5.5,6.6,3.9,8.4c-1.3,1.4-1.7,4,0.1,5.5c2.1,1.9,5.2,1.5,5.3,4.1
		c0.1,1.4-1.1,2.4-2.5,2.5c-1.6,0.1-3.6-0.3-5.2-1.5c-0.9-0.6,0.1-1.9,1-1.3c1.9,1.4,5.2,1.6,5,0.4c-0.1-1.2-2.5-1-4.8-2.9
		C-0.7,12,1.5,5.8,6.6,5.5C8,5.4,9.2,5.6,10.9,6.2C10.9,6.2,10.9,6.2,10.9,6.2z M1.4,22.4c-0.9-0.5-0.2-1.9,0.8-1.4
		c3.8,2,8.9,1.5,8.9-3c0-3.4-4.4-4-5.7-5c-2-1.5-0.9-5.9,5.2-3.4c1,0.4,0.4,1.9-0.6,1.5c-3.7-1.5-4.3,0-3.5,0.7
		c0.9,0.7,6.3,1.7,6.3,6.2c0,4.5-4,6.6-8.6,5.5C3.3,23.3,2.3,22.9,1.4,22.4C1.4,22.4,1.4,22.4,1.4,22.4z M6.7,18.8L6.7,18.8
		L6.7,18.8z M20.4,18.7c-0.4,0-0.8-0.4-0.8-0.8c0-0.5,0.4-0.8,0.8-0.8h1.2l-0.7-1.8c-0.1-0.4,0-0.9,0.4-1.1c0.4-0.2,0.9,0,1.1,0.4
		l1.2,2.9c0,0.1,0.1,0.2,0.1,0.3c0,0.5-0.4,0.8-0.9,0.8L20.4,18.7L20.4,18.7L20.4,18.7z M19.2,22.9c-0.1,0.4-0.6,0.6-1.1,0.5
		c-0.4-0.2-0.6-0.7-0.4-1.1l0.6-1.5c0.1-0.3,0.5-0.5,0.8-0.5l0,0h5.1c0.4,0,0.7,0.3,0.8,0.6l0.6,1.4c0.1,0.4,0,0.9-0.4,1.1
		c-0.4,0.1-0.9,0-1.1-0.5l-0.4-1h-4L19.2,22.9C19.2,22.9,19.2,22.9,19.2,22.9z M15.6,22.9c-0.2,0.4-0.7,0.6-1.1,0.5
		c-0.4-0.2-0.6-0.7-0.5-1.1l6.7-16.7C21,5.2,21.5,5,21.8,5.2c0.2,0.1,0.4,0.3,0.5,0.5L29,22.3c0.2,0.4,0,0.9-0.4,1.1
		c-0.4,0.1-0.9,0-1.1-0.5L21.6,8.1L15.6,22.9C15.6,22.9,15.6,22.9,15.6,22.9z M33.5,6.7c-0.2-0.4,0-0.9,0.4-1.1
		c0.4-0.1,0.9,0,1.1,0.5l2.5,6.2l2.5-6.2c0.1-0.4,0.6-0.6,1.1-0.5c0.4,0.2,0.6,0.6,0.5,1.1l-3.3,8.1c-0.3,0.7-1.2,0.7-1.5,0
		L33.5,6.7C33.5,6.7,33.5,6.7,33.5,6.7z M43.8,6.1c0.2-0.4,0.7-0.6,1.1-0.5c0.4,0.2,0.6,0.6,0.4,1.1l-7,17.1c-0.3,0.7-1.2,0.7-1.5,0
		l-7-17.1c-0.1-0.4,0-0.9,0.5-1.1c0.4-0.1,0.9,0,1.1,0.5l6.3,15.3L43.8,6.1L43.8,6.1L43.8,6.1z M65.2,11.8c0.1,0.4-0.1,0.9-0.5,1
		c-0.4,0.1-0.9-0.1-1.1-0.5c-0.5-1.6-1.5-2.9-2.8-3.9c-1.3-0.9-2.9-1.5-4.6-1.5c-10.2,0-10.2,15.3,0,15.3c1.7,0,3.3-0.5,4.6-1.5
		c1.3-1,2.3-2.3,2.8-3.9c0.1-0.4,0.6-0.7,1.1-0.5c0.4,0.1,0.7,0.6,0.5,1.1c-0.6,1.9-1.8,3.6-3.4,4.7c-1.6,1.1-3.5,1.8-5.6,1.8
		c-12.4,0-12.4-18.7,0-18.7c2.1,0,4,0.7,5.6,1.8C63.4,8.2,64.6,9.8,65.2,11.8L65.2,11.8L65.2,11.8z M51.1,17.5
		c-0.2-0.4-0.1-0.9,0.3-1.1c0.4-0.2,0.9-0.1,1.1,0.3c0.4,0.6,0.9,1.2,1.6,1.5c0.6,0.4,1.3,0.6,2.1,0.6c1.2,0,2.2-0.5,3-1.3
		c0.8-0.8,1.3-1.8,1.3-3c0-1.2-0.5-2.3-1.3-3c-0.7-0.8-1.8-1.3-3-1.3c-0.8,0-1.4,0.2-2.1,0.6c-0.6,0.4-1.2,0.9-1.6,1.5
		c-0.2,0.4-0.7,0.6-1.1,0.3c-0.4-0.2-0.5-0.7-0.3-1.2c0.5-0.9,1.3-1.7,2.1-2.2s1.9-0.8,2.9-0.8c1.6,0,3.1,0.7,4.2,1.7
		c1,1.1,1.7,2.5,1.7,4.2s-0.7,3.1-1.7,4.2c-1.1,1.1-2.5,1.8-4.2,1.8c-1,0-2-0.3-2.9-0.8C52.4,19.2,51.7,18.4,51.1,17.5L51.1,17.5
		L51.1,17.5z M75.6,13.8c-0.2,0-0.5,0-0.8,0c-1.3-0.1-1.3-1.6,0-1.6c0.8,0,1.7,0.1,1.7-0.8c0-0.5-0.4-0.8-0.9-0.8h-2.9
		c-1.1,0-1.1-1.6,0-1.6h2.9c1.5,0,2.5,1.3,2.5,2.5C78.1,12.7,76.9,13.8,75.6,13.8L75.6,13.8z M77.1,22.3c0.6,0.9-0.7,1.8-1.3,1
		L73.5,20v2.8c0,1.1-1.6,1.1-1.6,0v-5.3c0-0.9,1-1.1,1.5-0.5L77.1,22.3L77.1,22.3L77.1,22.3z M70.2,22.8c0,1.1-1.6,1.1-1.6,0V6.4
		c0-0.4,0.4-0.8,0.8-0.8h6.4c5,0,7.6,6.2,4,9.8c-0.7,0.7-1.6,1.3-2.6,1.5l3.8,5.4c0.6,0.9-0.7,1.8-1.3,1l-4.5-6.5
		c-0.5-0.6,0-1.3,0.6-1.3c3.6,0,5.4-4.5,2.8-7C78,7.7,77,7.2,75.9,7.2h-5.6V22.8L70.2,22.8z M88.8,22.8c0,0.4-0.4,0.8-0.8,0.8
		c-0.5,0-0.8-0.4-0.8-0.8V6.4c0-0.4,0.4-0.8,0.8-0.8c0.4,0,0.8,0.4,0.8,0.8V22.8L88.8,22.8z M85.5,22.8c0,0.4-0.4,0.8-0.8,0.8
		c-0.5,0-0.8-0.4-0.8-0.8V6.4c0-0.4,0.4-0.8,0.8-0.8c0.4,0,0.8,0.4,0.8,0.8V22.8L85.5,22.8z M97.5,18.7c-0.4,0-0.8-0.4-0.8-0.8
		c0-0.5,0.4-0.8,0.8-0.8h1.2l-0.7-1.8c-0.1-0.4,0-0.9,0.4-1.1c0.4-0.2,0.9,0,1.1,0.4l1.2,2.9c0,0.1,0.1,0.2,0.1,0.3
		c0,0.5-0.4,0.8-0.9,0.8L97.5,18.7C97.5,18.7,97.5,18.7,97.5,18.7z M96.3,22.9c-0.1,0.4-0.6,0.6-1.1,0.5c-0.4-0.2-0.6-0.7-0.4-1.1
		l0.6-1.5c0.1-0.3,0.5-0.5,0.8-0.5l0,0h5.1c0.4,0,0.7,0.3,0.8,0.6l0.6,1.4c0.1,0.4,0,0.9-0.4,1.1c-0.4,0.1-0.9,0-1.1-0.5l-0.4-1h-4
		L96.3,22.9L96.3,22.9L96.3,22.9z M92.8,22.9c-0.2,0.4-0.7,0.6-1.1,0.5c-0.4-0.2-0.6-0.7-0.5-1.1l6.7-16.7C98.1,5.2,98.6,5,99,5.2
		c0.2,0.1,0.4,0.3,0.5,0.5l6.7,16.7c0.2,0.4,0,0.9-0.4,1.1c-0.4,0.1-0.9,0-1.1-0.5L98.7,8.1L92.8,22.9L92.8,22.9L92.8,22.9z"/>
</g>
<g id="SvgjsG1812" transform="matrix(0.6805365972443246,0,0,0.6805365972443246,35.122497119692405,70.27065975862604)">
	<path class="st0" d="M14.1,30.5l4.9,7.8l5-7.8h2.5L20,40.3v7.5h-2.1v-7.5l-6.5-9.9C11.4,30.5,14.1,30.5,14.1,30.5z M58.7,30
		c2.6,0,4.8,0.9,6.5,2.6s2.6,3.9,2.6,6.5c0,2.7-0.9,4.9-2.6,6.6c-1.7,1.7-3.9,2.5-6.4,2.5c-2.6,0-4.8-0.9-6.5-2.6s-2.6-3.9-2.6-6.5
		c0-2.6,0.8-4.8,2.5-6.5C53.8,30.9,56,30.1,58.7,30z M51.8,39.1c0,2.1,0.7,3.8,2,5.1s2.9,2,4.9,2.1c2,0,3.6-0.7,4.9-2.1s2-3.1,2-5.1
		c0-2-0.6-3.7-1.9-5.1c-1.3-1.4-2.9-2.1-5-2.1c-2,0-3.6,0.7-4.9,2.1S51.8,37.1,51.8,39.1z M95.3,30.5v10.4c0,1.8,0.4,3.1,1.1,4
		s1.9,1.4,3.4,1.4c1.5,0,2.6-0.5,3.3-1.4s1.1-2.2,1.1-3.9V30.5h2.1v10.8c0,2.2-0.6,3.9-1.7,5.1c-1.1,1.2-2.8,1.8-4.8,1.9
		c-2,0-3.6-0.6-4.8-1.9c-1.2-1.2-1.7-3-1.8-5.2V30.5C93.2,30.5,95.3,30.5,95.3,30.5z M137.5,30.5c2.3,0,3.9,0.4,5,1.1
		c1.1,0.8,1.6,2,1.6,3.6c0,1.2-0.4,2.2-1.1,3c-0.7,0.8-1.8,1.3-3.2,1.6l4.9,8h-2.5l-4.7-7.8h-2.6v7.8h-2.1V30.5H137.5z M137.3,38.1
		c1.6,0,2.8-0.2,3.5-0.7c0.7-0.4,1.1-1.2,1.1-2.2c0-1-0.3-1.7-1-2.2c-0.7-0.5-1.7-0.7-3.1-0.7h-3v5.7H137.3z M209.8,30.5v1.9h-8.7
		v5.7h8.1V40h-8.1v7.8H199V30.5H209.8z M243,30c2.6,0,4.8,0.9,6.5,2.6s2.6,3.9,2.6,6.5c0,2.7-0.9,4.9-2.6,6.6
		c-1.7,1.7-3.9,2.5-6.4,2.5c-2.6,0-4.8-0.9-6.5-2.6s-2.6-3.9-2.6-6.5c0-2.6,0.8-4.8,2.5-6.5C238.1,30.9,240.3,30.1,243,30L243,30z
		 M236.1,39.1c0,2.1,0.7,3.8,2,5.1c1.3,1.3,2.9,2,4.9,2.1c2,0,3.6-0.7,4.9-2.1c1.3-1.4,2-3.1,2-5.1c0-2-0.6-3.7-1.9-5.1
		c-1.3-1.4-2.9-2.1-5-2.1c-2,0-3.6,0.7-4.9,2.1C236.8,35.4,236.1,37.1,236.1,39.1z M285.6,30c2.6,0,4.8,0.9,6.5,2.6
		c1.7,1.7,2.6,3.9,2.6,6.5c0,2.7-0.9,4.9-2.6,6.6c-1.7,1.7-3.9,2.5-6.4,2.5c-2.6,0-4.8-0.9-6.5-2.6s-2.6-3.9-2.6-6.5
		c0-2.6,0.8-4.8,2.5-6.5C280.8,30.9,283,30.1,285.6,30L285.6,30z M278.8,39.1c0,2.1,0.7,3.8,2,5.1c1.3,1.3,2.9,2,4.9,2.1
		c2,0,3.6-0.7,4.9-2.1c1.3-1.4,2-3.1,2-5.1c0-2-0.6-3.7-1.9-5.1c-1.3-1.4-2.9-2.1-5-2.1c-2,0-3.6,0.7-4.9,2.1
		C279.5,35.4,278.8,37.1,278.8,39.1z M326.4,30.5c2.5,0,4.6,0.8,6.2,2.4c1.6,1.6,2.4,3.7,2.5,6.3c0,2.6-0.8,4.7-2.4,6.3
		s-3.7,2.4-6.2,2.4h-6.5V30.5H326.4L326.4,30.5z M325.9,45.9c2.2,0,3.9-0.6,5.1-1.7c1.2-1.2,1.9-2.8,1.9-5c0-2.1-0.6-3.8-1.8-5
		c-1.2-1.2-2.9-1.8-5.2-1.8H322v13.5H325.9z M401.4,30.5v1.9h-5.7v15.4h-2.1V32.4h-5.7v-1.9L401.4,30.5L401.4,30.5z M436.9,30.5v1.9
		h-8.8v5.4h8.3v1.9h-8.3v6.2h9.3v1.9H426V30.5L436.9,30.5L436.9,30.5z M465.4,30.5l10.1,14.4h0V30.5h2.1v17.4h-2.6l-10.1-14.4h0
		v14.4h-2.1V30.5H465.4z M515.7,30.5v1.9H510v15.4h-2.1V32.4h-5.7v-1.9L515.7,30.5L515.7,30.5z"/>
</g>
</svg>
